<svg width="160" height="160" viewBox="0 0 160 160" fill="none" xmlns="http://www.w3.org/2000/svg">
<rect width="160" height="160" rx="32" fill="white"/>
<path fill-rule="evenodd" clip-rule="evenodd" d="M115.84 38.3986C112.659 38.3986 110.08 40.9774 110.08 44.1586C110.08 47.3398 112.659 49.9186 115.84 49.9186C119.021 49.9186 121.6 47.3398 121.6 44.1586C121.6 40.9774 119.021 38.3986 115.84 38.3986ZM106.24 44.1586C106.24 38.8567 110.538 34.5586 115.84 34.5586C121.142 34.5586 125.44 38.8567 125.44 44.1586C125.44 49.4605 121.142 53.7586 115.84 53.7586C110.538 53.7586 106.24 49.4605 106.24 44.1586Z" fill="black"/>
<path fill-rule="evenodd" clip-rule="evenodd" d="M74.8803 38.3986C71.6991 38.3986 69.1203 40.9774 69.1203 44.1586C69.1203 47.3398 71.6991 49.9186 74.8803 49.9186C78.0614 49.9186 80.6403 47.3398 80.6403 44.1586C80.6403 40.9774 78.0614 38.3986 74.8803 38.3986ZM65.2803 44.1586C65.2803 38.8567 69.5783 34.5586 74.8803 34.5586C80.1822 34.5586 84.4803 38.8567 84.4803 44.1586C84.4803 49.4605 80.1822 53.7586 74.8803 53.7586C69.5783 53.7586 65.2803 49.4605 65.2803 44.1586Z" fill="black"/>
<path fill-rule="evenodd" clip-rule="evenodd" d="M74.8803 110.08C71.6991 110.08 69.1203 112.659 69.1203 115.84C69.1203 119.021 71.6991 121.6 74.8803 121.6C78.0614 121.6 80.6403 119.021 80.6403 115.84C80.6403 112.659 78.0614 110.08 74.8803 110.08ZM65.2803 115.84C65.2803 110.538 69.5783 106.24 74.8803 106.24C80.1822 106.24 84.4803 110.538 84.4803 115.84C84.4803 121.142 80.1822 125.44 74.8803 125.44C69.5783 125.44 65.2803 121.142 65.2803 115.84Z" fill="black"/>
<path fill-rule="evenodd" clip-rule="evenodd" d="M97.9198 74.2404C94.7387 74.2404 92.1598 76.8192 92.1598 80.0004C92.1598 83.1816 94.7387 85.7604 97.9198 85.7604C101.101 85.7604 103.68 83.1816 103.68 80.0004C103.68 76.8192 101.101 74.2404 97.9198 74.2404ZM88.3198 80.0004C88.3198 74.6985 92.6179 70.4004 97.9198 70.4004C103.222 70.4004 107.52 74.6985 107.52 80.0004C107.52 85.3023 103.222 89.6004 97.9198 89.6004C92.6179 89.6004 88.3198 85.3023 88.3198 80.0004Z" fill="black"/>
<path fill-rule="evenodd" clip-rule="evenodd" d="M44.1601 74.2404C40.9789 74.2404 38.4001 76.8192 38.4001 80.0004C38.4001 83.1816 40.9789 85.7604 44.1601 85.7604C47.3412 85.7604 49.9201 83.1816 49.9201 80.0004C49.9201 76.8192 47.3412 74.2404 44.1601 74.2404ZM34.5601 80.0004C34.5601 74.6985 38.8581 70.4004 44.1601 70.4004C49.462 70.4004 53.7601 74.6985 53.7601 80.0004C53.7601 85.3023 49.462 89.6004 44.1601 89.6004C38.8581 89.6004 34.5601 85.3023 34.5601 80.0004Z" fill="black"/>
<path fill-rule="evenodd" clip-rule="evenodd" d="M115.84 110.08C112.659 110.08 110.08 112.659 110.08 115.84C110.08 119.021 112.659 121.6 115.84 121.6C119.021 121.6 121.6 119.021 121.6 115.84C121.6 112.659 119.021 110.08 115.84 110.08ZM106.24 115.84C106.24 110.538 110.538 106.24 115.84 106.24C121.142 106.24 125.44 110.538 125.44 115.84C125.44 121.142 121.142 125.44 115.84 125.44C110.538 125.44 106.24 121.142 106.24 115.84Z" fill="black"/>
<path fill-rule="evenodd" clip-rule="evenodd" d="M44.1601 38.3986C40.9789 38.3986 38.4001 40.9774 38.4001 44.1586C38.4001 47.3398 40.9789 49.9186 44.1601 49.9186C47.3412 49.9186 49.9201 47.3398 49.9201 44.1586C49.9201 40.9774 47.3412 38.3986 44.1601 38.3986ZM34.5601 44.1586C34.5601 38.8567 38.8581 34.5586 44.1601 34.5586C49.462 34.5586 53.7601 38.8567 53.7601 44.1586C53.7601 49.4605 49.462 53.7586 44.1601 53.7586C38.8581 53.7586 34.5601 49.4605 34.5601 44.1586Z" fill="black"/>
<path fill-rule="evenodd" clip-rule="evenodd" d="M44.1601 110.08C40.9789 110.08 38.4001 112.659 38.4001 115.84C38.4001 119.021 40.9789 121.6 44.1601 121.6C47.3412 121.6 49.9201 119.021 49.9201 115.84C49.9201 112.659 47.3412 110.08 44.1601 110.08ZM34.5601 115.84C34.5601 110.538 38.8581 106.24 44.1601 106.24C49.462 106.24 53.7601 110.538 53.7601 115.84C53.7601 121.142 49.462 125.44 44.1601 125.44C38.8581 125.44 34.5601 121.142 34.5601 115.84Z" fill="black"/>
<path fill-rule="evenodd" clip-rule="evenodd" d="M65.9203 46.0802H51.8403V42.2402H65.9203V46.0802Z" fill="black"/>
<path fill-rule="evenodd" clip-rule="evenodd" d="M108.16 46.0802L82.5601 46.0802L82.5601 42.2402L108.16 42.2402L108.16 46.0802Z" fill="black"/>
<path fill-rule="evenodd" clip-rule="evenodd" d="M90.2403 81.9201H51.8403V78.0801H90.2403V81.9201Z" fill="black"/>
<path fill-rule="evenodd" clip-rule="evenodd" d="M49.3967 75.2306L108.891 45.4834L110.608 48.918L51.114 78.6652L49.3967 75.2306Z" fill="black"/>
<path fill-rule="evenodd" clip-rule="evenodd" d="M48.8502 71.5733L67.2822 50.0693L70.1978 52.5684L51.7658 74.0724L48.8502 71.5733Z" fill="black"/>
<path fill-rule="evenodd" clip-rule="evenodd" d="M51.1468 85.1923L70.8076 108.13L67.8921 110.629L48.2313 87.6913L51.1468 85.1923Z" fill="black"/>
<path fill-rule="evenodd" clip-rule="evenodd" d="M53.2649 82.4061L108.459 110.003L106.741 113.438L51.5476 85.8407L53.2649 82.4061Z" fill="black"/>
<path fill-rule="evenodd" clip-rule="evenodd" d="M65.9203 118.399H51.8403V113.279H65.9203V118.399Z" fill="black"/>
<path fill-rule="evenodd" clip-rule="evenodd" d="M108.16 118.399L82.5601 118.399L82.5601 113.279L108.16 113.279L108.16 118.399Z" fill="black"/>
<path fill-rule="evenodd" clip-rule="evenodd" d="M46.7201 51.8403L46.7201 72.3203L41.6001 72.3203L41.6001 51.8403L46.7201 51.8403Z" fill="black"/>
<path fill-rule="evenodd" clip-rule="evenodd" d="M46.7201 87.6802L46.7201 108.16L41.6001 108.16L41.6001 87.6802L46.7201 87.6802Z" fill="black"/>
</svg>
