<svg width="263" height="47" viewBox="0 0 263 47" fill="none" xmlns="http://www.w3.org/2000/svg">
<path d="M0.290084 46V0.181817H29.0159V6.13281H7.20308V20.093H27.517V26.0217H7.20308V40.049H29.2844V46H0.290084ZM53.754 11.6364V17.0057H34.9837V11.6364H53.754ZM40.0174 3.40341H46.7067V35.9102C46.7067 37.2077 46.9006 38.1847 47.2884 38.8409C47.6762 39.4822 48.1758 39.9222 48.7873 40.1609C49.4138 40.3846 50.0924 40.4964 50.8232 40.4964C51.3601 40.4964 51.8299 40.4592 52.2326 40.3846C52.6353 40.31 52.9486 40.2504 53.1723 40.2056L54.3804 45.7315C53.9926 45.8807 53.4407 46.0298 52.7248 46.179C52.0089 46.343 51.114 46.4325 50.0402 46.4474C48.2802 46.4773 46.6396 46.1641 45.1183 45.5078C43.597 44.8516 42.3665 43.8374 41.4269 42.4652C40.4873 41.093 40.0174 39.3704 40.0174 37.2972V3.40341ZM75.5948 46.6935C72.2091 46.6935 69.2933 45.9702 66.8473 44.5234C64.4161 43.0618 62.5369 41.011 61.2095 38.3711C59.897 35.7163 59.2407 32.6065 59.2407 29.0419C59.2407 25.522 59.897 22.4197 61.2095 19.7351C62.5369 17.0504 64.3863 14.9549 66.7578 13.4485C69.1441 11.9421 71.9332 11.1889 75.125 11.1889C77.0639 11.1889 78.9431 11.5096 80.7627 12.1509C82.5823 12.7923 84.2155 13.799 85.6622 15.1712C87.109 16.5433 88.25 18.3256 89.0852 20.5181C89.9204 22.6957 90.338 25.343 90.338 28.4602V30.8317H63.0216V25.8203H83.783C83.783 24.0604 83.425 22.5018 82.7091 21.1445C81.9932 19.7724 80.9865 18.6911 79.6889 17.9006C78.4062 17.1101 76.8998 16.7148 75.1697 16.7148C73.2904 16.7148 71.6498 17.1772 70.2478 18.1019C68.8608 19.0117 67.7869 20.2049 67.0262 21.6815C66.2805 23.1431 65.9076 24.7315 65.9076 26.4467V30.3619C65.9076 32.6587 66.3103 34.6126 67.1157 36.2234C67.936 37.8342 69.077 39.0646 70.5387 39.9148C72.0003 40.75 73.7081 41.1676 75.6619 41.1676C76.9296 41.1676 78.0855 40.9886 79.1296 40.6307C80.1736 40.2578 81.076 39.706 81.8366 38.9751C82.5973 38.2443 83.1789 37.342 83.5816 36.2681L89.913 37.4091C89.4059 39.2734 88.496 40.9066 87.1835 42.3086C85.886 43.6957 84.2528 44.777 82.284 45.5526C80.3302 46.3132 78.1005 46.6935 75.5948 46.6935ZM97.76 46V11.6364H104.226V17.0952H104.583C105.21 15.2457 106.314 13.7915 107.895 12.7326C109.49 11.6587 111.295 11.1218 113.309 11.1218C113.726 11.1218 114.218 11.1367 114.785 11.1665C115.367 11.1964 115.822 11.2337 116.15 11.2784V17.6768C115.881 17.6023 115.404 17.5202 114.718 17.4308C114.032 17.3263 113.346 17.2741 112.66 17.2741C111.079 17.2741 109.669 17.6097 108.432 18.2809C107.208 18.9371 106.239 19.8544 105.523 21.0327C104.807 22.196 104.449 23.5234 104.449 25.0149V46H97.76ZM128.628 25.5966V46H121.939V11.6364H128.36V17.2294H128.785C129.575 15.4098 130.813 13.9482 132.498 12.8445C134.199 11.7408 136.339 11.1889 138.919 11.1889C141.261 11.1889 143.312 11.6811 145.072 12.6655C146.831 13.6349 148.196 15.0817 149.166 17.0057C150.135 18.9297 150.62 21.3086 150.62 24.1424V46H143.931V24.9478C143.931 22.457 143.282 20.5107 141.984 19.1087C140.687 17.6918 138.904 16.9833 136.637 16.9833C135.086 16.9833 133.706 17.3189 132.498 17.9901C131.305 18.6612 130.358 19.6456 129.657 20.9432C128.971 22.2259 128.628 23.777 128.628 25.5966ZM169.591 46.7607C167.414 46.7607 165.445 46.358 163.685 45.5526C161.925 44.7322 160.531 43.5465 159.502 41.9954C158.487 40.4442 157.98 38.5426 157.98 36.2905C157.98 34.3516 158.353 32.7557 159.099 31.5028C159.845 30.25 160.851 29.2582 162.119 28.5273C163.387 27.7965 164.804 27.2447 166.37 26.8718C167.936 26.4989 169.532 26.2156 171.157 26.0217C173.216 25.783 174.886 25.5891 176.169 25.44C177.451 25.2759 178.384 25.0149 178.965 24.657C179.547 24.299 179.838 23.7173 179.838 22.9119V22.7553C179.838 20.8015 179.286 19.2876 178.182 18.2138C177.094 17.1399 175.468 16.603 173.305 16.603C171.053 16.603 169.278 17.1026 167.981 18.1019C166.698 19.0863 165.811 20.1825 165.318 21.3906L159.032 19.9588C159.777 17.8707 160.866 16.1854 162.298 14.9027C163.745 13.6051 165.408 12.6655 167.287 12.0838C169.166 11.4872 171.143 11.1889 173.216 11.1889C174.588 11.1889 176.042 11.353 177.578 11.6811C179.129 11.9943 180.576 12.576 181.918 13.4261C183.276 14.2763 184.387 15.4918 185.252 17.0728C186.117 18.6388 186.549 20.6747 186.549 23.1804V46H180.017V41.3018H179.748C179.316 42.1669 178.667 43.017 177.802 43.8523C176.937 44.6875 175.826 45.381 174.469 45.9329C173.111 46.4847 171.486 46.7607 169.591 46.7607ZM171.046 41.3913C172.895 41.3913 174.476 41.0259 175.788 40.2951C177.116 39.5643 178.123 38.6097 178.809 37.4315C179.51 36.2383 179.86 34.9631 179.86 33.6058V29.1761C179.622 29.4148 179.159 29.6385 178.473 29.8473C177.802 30.0412 177.034 30.2127 176.169 30.3619C175.304 30.4961 174.461 30.6229 173.641 30.7422C172.82 30.8466 172.134 30.9361 171.583 31.0107C170.285 31.1747 169.099 31.4506 168.025 31.8384C166.966 32.2262 166.116 32.7855 165.475 33.5163C164.848 34.2322 164.535 35.1868 164.535 36.38C164.535 38.0355 165.147 39.2884 166.37 40.1385C167.593 40.9737 169.151 41.3913 171.046 41.3913ZM202.148 0.181817V46H195.459V0.181817H202.148ZM215.555 46H208.217L224.705 0.181817H232.692L249.18 46H241.842L228.889 8.50426H228.531L215.555 46ZM216.785 28.0575H240.589V33.8743H216.785V28.0575ZM262.71 0.181817V46H255.797V0.181817H262.71Z" fill="black"/>
</svg>
