<svg width="91" height="91" viewBox="0 0 91 91" fill="none" xmlns="http://www.w3.org/2000/svg">
<path fill-rule="evenodd" clip-rule="evenodd" d="M81.2797 3.84C78.0985 3.84 75.5197 6.41884 75.5197 9.6C75.5197 12.7812 78.0985 15.36 81.2797 15.36C84.4608 15.36 87.0397 12.7812 87.0397 9.6C87.0397 6.41884 84.4608 3.84 81.2797 3.84ZM71.6797 9.6C71.6797 4.29807 75.9778 0 81.2797 0C86.5816 0 90.8797 4.29807 90.8797 9.6C90.8797 14.9019 86.5816 19.2 81.2797 19.2C75.9778 19.2 71.6797 14.9019 71.6797 9.6Z" fill="black"/>
<path fill-rule="evenodd" clip-rule="evenodd" d="M40.3202 3.84C37.1391 3.84 34.5602 6.41884 34.5602 9.6C34.5602 12.7812 37.1391 15.36 40.3202 15.36C43.5014 15.36 46.0802 12.7812 46.0802 9.6C46.0802 6.41884 43.5014 3.84 40.3202 3.84ZM30.7202 9.6C30.7202 4.29807 35.0183 0 40.3202 0C45.6221 0 49.9202 4.29807 49.9202 9.6C49.9202 14.9019 45.6221 19.2 40.3202 19.2C35.0183 19.2 30.7202 14.9019 30.7202 9.6Z" fill="black"/>
<path fill-rule="evenodd" clip-rule="evenodd" d="M40.3202 75.5216C37.1391 75.5216 34.5602 78.1005 34.5602 81.2816C34.5602 84.4628 37.1391 87.0416 40.3202 87.0416C43.5014 87.0416 46.0802 84.4628 46.0802 81.2816C46.0802 78.1005 43.5014 75.5216 40.3202 75.5216ZM30.7202 81.2816C30.7202 75.9797 35.0183 71.6816 40.3202 71.6816C45.6221 71.6816 49.9202 75.9797 49.9202 81.2816C49.9202 86.5836 45.6221 90.8816 40.3202 90.8816C35.0183 90.8816 30.7202 86.5836 30.7202 81.2816Z" fill="black"/>
<path fill-rule="evenodd" clip-rule="evenodd" d="M63.3598 39.6818C60.1786 39.6818 57.5998 42.2606 57.5998 45.4418C57.5998 48.623 60.1786 51.2018 63.3598 51.2018C66.5409 51.2018 69.1198 48.623 69.1198 45.4418C69.1198 42.2606 66.5409 39.6818 63.3598 39.6818ZM53.7598 45.4418C53.7598 40.1399 58.0578 35.8418 63.3598 35.8418C68.6617 35.8418 72.9598 40.1399 72.9598 45.4418C72.9598 50.7437 68.6617 55.0418 63.3598 55.0418C58.0578 55.0418 53.7598 50.7437 53.7598 45.4418Z" fill="black"/>
<path fill-rule="evenodd" clip-rule="evenodd" d="M9.6 39.6818C6.41884 39.6818 3.84 42.2606 3.84 45.4418C3.84 48.623 6.41884 51.2018 9.6 51.2018C12.7812 51.2018 15.36 48.623 15.36 45.4418C15.36 42.2606 12.7812 39.6818 9.6 39.6818ZM0 45.4418C0 40.1399 4.29807 35.8418 9.6 35.8418C14.9019 35.8418 19.2 40.1399 19.2 45.4418C19.2 50.7437 14.9019 55.0418 9.6 55.0418C4.29807 55.0418 0 50.7437 0 45.4418Z" fill="black"/>
<path fill-rule="evenodd" clip-rule="evenodd" d="M81.2797 75.5216C78.0985 75.5216 75.5197 78.1005 75.5197 81.2816C75.5197 84.4628 78.0985 87.0416 81.2797 87.0416C84.4608 87.0416 87.0397 84.4628 87.0397 81.2816C87.0397 78.1005 84.4608 75.5216 81.2797 75.5216ZM71.6797 81.2816C71.6797 75.9797 75.9778 71.6816 81.2797 71.6816C86.5816 71.6816 90.8797 75.9797 90.8797 81.2816C90.8797 86.5836 86.5816 90.8816 81.2797 90.8816C75.9778 90.8816 71.6797 86.5836 71.6797 81.2816Z" fill="black"/>
<path fill-rule="evenodd" clip-rule="evenodd" d="M9.6 3.84C6.41884 3.84 3.84 6.41884 3.84 9.6C3.84 12.7812 6.41884 15.36 9.6 15.36C12.7812 15.36 15.36 12.7812 15.36 9.6C15.36 6.41884 12.7812 3.84 9.6 3.84ZM0 9.6C0 4.29807 4.29807 0 9.6 0C14.9019 0 19.2 4.29807 19.2 9.6C19.2 14.9019 14.9019 19.2 9.6 19.2C4.29807 19.2 0 14.9019 0 9.6Z" fill="black"/>
<path fill-rule="evenodd" clip-rule="evenodd" d="M9.6 75.5216C6.41884 75.5216 3.84 78.1005 3.84 81.2816C3.84 84.4628 6.41884 87.0416 9.6 87.0416C12.7812 87.0416 15.36 84.4628 15.36 81.2816C15.36 78.1005 12.7812 75.5216 9.6 75.5216ZM0 81.2816C0 75.9797 4.29807 71.6816 9.6 71.6816C14.9019 71.6816 19.2 75.9797 19.2 81.2816C19.2 86.5836 14.9019 90.8816 9.6 90.8816C4.29807 90.8816 0 86.5836 0 81.2816Z" fill="black"/>
<path fill-rule="evenodd" clip-rule="evenodd" d="M31.3603 11.5216H17.2803V7.68164H31.3603V11.5216Z" fill="black"/>
<path fill-rule="evenodd" clip-rule="evenodd" d="M73.6 11.5216L48 11.5216L48 7.68164L73.6 7.68164L73.6 11.5216Z" fill="black"/>
<path fill-rule="evenodd" clip-rule="evenodd" d="M55.6803 47.3615H17.2803V43.5215H55.6803V47.3615Z" fill="black"/>
<path fill-rule="evenodd" clip-rule="evenodd" d="M14.8366 40.672L74.331 10.9248L76.0483 14.3594L16.5539 44.1066L14.8366 40.672Z" fill="black"/>
<path fill-rule="evenodd" clip-rule="evenodd" d="M14.2901 37.0147L32.7221 15.5107L35.6377 18.0098L17.2057 39.5138L14.2901 37.0147Z" fill="black"/>
<path fill-rule="evenodd" clip-rule="evenodd" d="M16.5868 50.6337L36.2476 73.5713L33.332 76.0703L13.6712 53.1327L16.5868 50.6337Z" fill="black"/>
<path fill-rule="evenodd" clip-rule="evenodd" d="M18.7049 47.8475L73.8985 75.4443L72.1812 78.8789L16.9876 51.2821L18.7049 47.8475Z" fill="black"/>
<path fill-rule="evenodd" clip-rule="evenodd" d="M31.3603 83.8407H17.2803V78.7207H31.3603V83.8407Z" fill="black"/>
<path fill-rule="evenodd" clip-rule="evenodd" d="M73.6 83.8407L48 83.8407L48 78.7207L73.6 78.7207L73.6 83.8407Z" fill="black"/>
<path fill-rule="evenodd" clip-rule="evenodd" d="M12.16 17.2817L12.16 37.7617L7.04004 37.7617L7.04004 17.2817L12.16 17.2817Z" fill="black"/>
<path fill-rule="evenodd" clip-rule="evenodd" d="M12.16 53.1216L12.16 73.6016L7.04004 73.6016L7.04004 53.1216L12.16 53.1216Z" fill="black"/>
</svg>
